<svg xmlns="http://www.w3.org/2000/svg" data-name="Layer 1" viewBox="0 0 994.83469 193.4315"><path d="M360.534 96.656a22.63 22.63 0 0 1 22.658-22.745 22.31 22.31 0 0 1 21.085 13.82l-10.675 4.552a11.371 11.371 0 1 0 0 8.75l10.675 4.547a22.3 22.3 0 0 1-21.085 13.821 22.625 22.625 0 0 1-22.658-22.745m48.128-41.99h11.899V79.6a15.38 15.38 0 0 1 12.073-5.69c10.323 0 16.536 6.652 16.536 17.935v26.684h-12.16V93.51c0-5.953-2.713-9.363-8.05-9.363-4.55 0-8.312 3.15-8.312 10.5v23.882h-11.986Zm45.329 41.99c0-15.486 11.373-22.745 21.26-22.745a17.53 17.53 0 0 1 13.035 5.16v-4.283h11.983v43.74h-11.983v-4.9a17.04 17.04 0 0 1-13.212 5.773c-9.271 0-21.083-7.344-21.083-22.745m34.644-.085c0-6.476-4.724-11.727-11.198-11.727a11.77 11.77 0 0 0 0 23.539c6.474 0 11.198-5.34 11.198-11.812m17.775-41.905h11.986v63.863H506.41Zm18.55 0h11.986v63.863H524.96Zm16.8 41.99a22.7 22.7 0 0 1 22.745-22.745c13.387 0 22.57 10.061 22.57 22.66v4.373h-33.768c1.401 4.81 5.337 7.962 11.637 7.962a11.58 11.58 0 0 0 10.76-6.826l9.534 5.69c-3.761 6.82-10.672 11.631-20.381 11.631-13.65 0-23.097-10.146-23.097-22.745m12.073-5.335h21.172c-1.575-4.552-5.337-6.91-10.413-6.91a11.43 11.43 0 0 0-10.759 6.91m38.157-16.533h11.899v4.896a15.07 15.07 0 0 1 12.073-5.773c10.323 0 16.535 6.65 16.535 17.934v26.684h-12.16V93.42c0-5.863-2.712-9.273-8.05-9.273-4.55 0-8.311 3.15-8.311 10.5v23.882H591.99Zm45.329 21.868c0-15.486 11.373-22.745 21.26-22.745a17.15 17.15 0 0 1 13.035 5.599v-4.722h11.983v42.514c0 12.335-7.785 22.312-22.57 22.312-11.111 0-19.246-5.774-22.746-12.6l10.585-5.948a12.84 12.84 0 0 0 12.16 7.434 10.437 10.437 0 0 0 10.588-10.76v-4.113a17.04 17.04 0 0 1-13.213 5.774c-9.27 0-21.082-7.344-21.082-22.745m34.644-.085c0-6.476-4.724-11.727-11.198-11.727a11.77 11.77 0 0 0 0 23.539c6.474 0 11.198-5.34 11.198-11.812m16.461.085A22.7 22.7 0 0 1 711.17 73.91c13.387 0 22.57 10.061 22.57 22.66v4.373h-33.768c1.401 4.81 5.337 7.962 11.637 7.962a11.58 11.58 0 0 0 10.76-6.826l9.535 5.69c-3.762 6.82-10.672 11.631-20.382 11.631-13.649 0-23.097-10.146-23.097-22.745m12.073-5.335h21.172c-1.575-4.552-5.337-6.91-10.413-6.91a11.43 11.43 0 0 0-10.759 6.91m38.156-16.532h11.899v7.17c2.186-4.547 6.125-7.17 12.073-7.17h4.811V86.42h-7.61c-6.387 0-9.187 3.326-9.187 11.462v20.647h-11.986Zm34.216 0h11.898v4.637a14.48 14.48 0 0 1 11.635-5.514c6.212 0 10.849 2.448 13.474 6.91a16.61 16.61 0 0 1 13.648-6.91c11.109 0 16.62 6.65 16.62 17.934v26.684h-12.16V93.42c0-5.863-2.273-9.273-7.61-9.273-4.55 0-7.873 3.15-7.873 10.5v23.882h-12.16V93.42c0-5.863-2.277-9.273-7.611-9.273-4.55 0-7.875 3.15-7.875 10.5v23.882H772.87Zm72.108 21.868a22.658 22.658 0 1 1 22.658 22.745 22.63 22.63 0 0 1-22.658-22.745m33.681 0a11.22 11.22 0 0 0-11.023-11.373 11.381 11.381 0 0 0 0 22.745 11.22 11.22 0 0 0 11.023-11.372m15.587 0c0-15.486 11.372-22.745 21.26-22.745a17.53 17.53 0 0 1 13.035 5.16V54.666h11.983v63.863H928.54v-4.902a17.04 17.04 0 0 1-13.213 5.774c-9.27 0-21.082-7.344-21.082-22.745m34.644-.085c0-6.476-4.724-11.727-11.199-11.727a11.77 11.77 0 0 0 0 23.539c6.474 0 11.199-5.34 11.199-11.812m16.461.085a22.7 22.7 0 0 1 22.746-22.745c13.387 0 22.57 10.061 22.57 22.66v4.373h-33.768c1.401 4.81 5.337 7.962 11.637 7.962a11.58 11.58 0 0 0 10.76-6.826l9.534 5.69c-3.761 6.82-10.672 11.631-20.381 11.631-13.649 0-23.097-10.146-23.097-22.745m12.074-5.335h21.172c-1.575-4.552-5.337-6.91-10.413-6.91a11.43 11.43 0 0 0-10.759 6.91" style="fill:#fff"/><path d="M237.71 21.534q-8.894-17.788-26.683-17.788t-26.683 17.788l-75.602 142.31h40.024c22.236 0 26.683-8.894 35.578-26.683l26.683-53.366 13.341 26.683c13.342 26.683 22.236 26.683 35.578 26.683h40.025Z" style="fill:#f36f21"/><path d="M122.083 74.9Q113.19 57.113 95.4 57.113T68.717 74.9L6.457 190.527H46.48c22.236 0 26.683-8.894 35.577-26.683L95.4 137.161l13.341 26.683 30.461-57.338Z" style="fill:#f15a29"/></svg>